HIERARCHY
ROOT Hips
{
 OFFSET 0.000000 0.000000 0.000000
 CHANNELS 6 Xposition Yposition Zposition Yrotation Xrotation Zrotation
 JOINT Chest
 {
  OFFSET 0.000000 9.588913 -0.003946
  CHANNELS 3 Yrotation Xrotation Zrotation
  JOINT Chest2
  {
   OFFSET 0.000000 9.541882 0.008053
   CHANNELS 3 Yrotation Xrotation Zrotation
   JOINT Chest3
   {
    OFFSET 0.000000 9.501360 0.000000
    CHANNELS 3 Yrotation Xrotation Zrotation
    JOINT Chest4
    {
     OFFSET 0.000000 9.491660 0.000000
     CHANNELS 3 Yrotation Xrotation Zrotation
     JOINT Neck
     {
      OFFSET 0.000000 14.331917 0.000000
      CHANNELS 3 Yrotation Xrotation Zrotation
      JOINT Head
      {
       OFFSET 0.000000 8.884799 0.017034
       CHANNELS 3 Yrotation Xrotation Zrotation
       End Site
       {
        OFFSET 0.000000 16.896195 0.008993
       }
      }
     }
     JOINT RightCollar
     {
      OFFSET -2.923010 9.499495 0.000000
      CHANNELS 3 Yrotation Xrotation Zrotation
      JOINT RightShoulder
      {
       OFFSET -13.795216 0.000000 0.000000
       CHANNELS 3 Yrotation Xrotation Zrotation
       JOINT RightElbow
       {
        OFFSET -30.272209 0.000000 0.000000
        CHANNELS 3 Yrotation Xrotation Zrotation
        JOINT RightWrist
        {
         OFFSET -24.478199 0.000000 0.000000
         CHANNELS 3 Yrotation Xrotation Zrotation
         End Site
         {
          OFFSET -18.090752 0.000000 0.000000
         }
        }
       }
      }
     }
     JOINT LeftCollar
     {
      OFFSET 2.923010 9.499495 0.000000
      CHANNELS 3 Yrotation Xrotation Zrotation
      JOINT LeftShoulder
      {
       OFFSET 13.795216 0.000000 0.000000
       CHANNELS 3 Yrotation Xrotation Zrotation
       JOINT LeftElbow
       {
        OFFSET 30.272209 0.000000 0.000000
        CHANNELS 3 Yrotation Xrotation Zrotation
        JOINT LeftWrist
        {
         OFFSET 24.478199 0.000000 0.000000
         CHANNELS 3 Yrotation Xrotation Zrotation
         End Site
         {
          OFFSET 18.090752 0.000000 0.000000
         }
        }
       }
      }
     }
    }
   }
  }
 }
 JOINT RightHip
 {
  OFFSET -7.826875 0.019532 0.001973
  CHANNELS 3 Yrotation Xrotation Zrotation
  JOINT RightKnee
  {
   OFFSET 0.000000 -40.546152 -0.001885
   CHANNELS 3 Yrotation Xrotation Zrotation
   JOINT RightAnkle
   {
    OFFSET 0.000000 -39.417092 -0.003189
    CHANNELS 3 Yrotation Xrotation Zrotation
    JOINT RightToe
    {
     OFFSET 0.000000 -7.579396 17.243563
     CHANNELS 3 Yrotation Xrotation Zrotation
     End Site
     {
      OFFSET 0.000000 -1.500329 6.694466
     }
    }
   }
  }
 }
 JOINT LeftHip
 {
  OFFSET 7.826875 0.019532 0.001973
  CHANNELS 3 Yrotation Xrotation Zrotation
  JOINT LeftKnee
  {
   OFFSET 0.000000 -40.546152 -0.001885
   CHANNELS 3 Yrotation Xrotation Zrotation
   JOINT LeftAnkle
   {
    OFFSET 0.000000 -39.417092 -0.003189
    CHANNELS 3 Yrotation Xrotation Zrotation
    JOINT LeftToe
    {
     OFFSET 0.000000 -7.579396 17.243563
     CHANNELS 3 Yrotation Xrotation Zrotation
     End Site
     {
      OFFSET 0.000000 -1.500329 6.694466
     }
    }
   }
  }
 }
}
MOTION
Frames: 15
Frame Time: 0.008333
-3.849441 45.165855 -18.629275 11.991180 -11.090616 -7.845943 10.623993 9.602157 3.200166 6.062535 5.475673 1.210470 7.604880 6.822056 1.605402 6.062538 5.475673 1.210471 13.153125 2.338865 0.661092 16.120822 -23.835427 -2.961605 9.348230 -2.294498 -5.265806 -8.574973 -21.514954 51.627055 91.900280 -4.863329 21.827249 -2.639985 1.468681 2.627109 1.197642 -7.064099 15.429858 -55.171788 -62.416620 -1.040366 -31.479707 -37.471848 -5.239609 -4.203358 -1.917074 5.981467 70.828830 -73.629674 -49.015145 127.864165 68.309398 152.279826 -0.217262 -23.618196 -2.498265 0.130357 1.412638 0.047619 -156.729634 -79.862952 -144.788096 -157.043454 63.804481 -128.464350 2.333993 -10.835680 -8.852764 -0.626995 -1.328466 -0.215660
-3.858088 45.160526 -18.641909 11.971562 -11.221119 -7.762282 10.624163 9.580357 3.197234 6.065480 5.463487 1.215055 7.608553 6.806741 1.610967 6.065483 5.463488 1.215056 13.112328 2.497251 0.651140 16.041618 -23.644075 -2.949351 9.383262 -2.351513 -5.202754 -8.239873 -21.553754 51.626527 91.598682 -4.755822 21.864008 -2.723446 1.478992 2.590559 1.251899 -6.864952 15.334197 -54.661756 -62.442377 -1.701612 -31.846780 -37.151385 -5.463074 -4.435558 -1.998664 6.196974 70.462141 -73.603683 -48.630894 127.982634 68.283220 152.320247 -0.194305 -23.588093 -2.496517 0.111079 1.397414 0.039432 -156.668601 -80.056849 -144.811017 -156.961076 63.842546 -128.420760 2.309926 -10.819462 -8.878163 -0.605393 -1.321473 -0.209946
-3.866650 45.155425 -18.654114 11.950510 -11.350966 -7.677136 10.628195 9.554316 3.195478 6.068289 5.450391 1.220610 7.612064 6.790273 1.617729 6.068292 5.450392 1.220611 13.073747 2.660404 0.643078 15.964443 -23.447481 -2.935322 9.416744 -2.405773 -5.137360 -7.923057 -21.596178 51.634654 91.296866 -4.655237 21.912727 -2.809092 1.493384 2.557127 1.309474 -6.673229 15.236103 -54.141640 -62.479598 -2.395002 -32.203771 -36.806910 -5.707471 -4.686431 -2.062473 6.448691 70.097691 -73.578071 -48.250040 128.100651 68.256633 152.359559 -0.169957 -23.554363 -2.498855 0.092722 1.379532 0.033033 -156.632410 -80.249685 -144.809360 -156.881598 63.877613 -128.376861 2.292387 -10.805139 -8.901842 -0.589176 -1.314572 -0.206022
-3.874939 45.150461 -18.666148 11.931550 -11.478909 -7.588741 10.631254 9.525608 3.192449 6.070422 5.435996 1.225928 7.614718 6.772188 1.624161 6.070426 5.435997 1.225929 13.038440 2.827191 0.641834 15.889467 -23.247161 -2.913864 9.453572 -2.459038 -5.066621 -7.630097 -21.639344 51.651974 90.996353 -4.563860 21.974567 -2.892739 1.514538 2.526492 1.370389 -6.488416 15.143792 -53.594681 -62.533576 -3.145323 -32.559676 -36.423651 -5.956970 -4.963827 -2.110975 6.741226 69.742439 -73.550348 -47.882781 128.225784 68.228959 152.404865 -0.142484 -23.517729 -2.500488 0.073464 1.358556 0.025295 -156.643247 -80.441391 -144.763430 -156.801597 63.911780 -128.327564 2.274972 -10.790364 -8.927152 -0.572600 -1.308306 -0.200992
-3.885013 45.144423 -18.684212 11.953568 -11.560480 -7.507899 10.588384 9.456612 3.182229 6.072811 5.420478 1.230873 7.617677 6.752706 1.630110 6.072814 5.420479 1.230874 13.005063 2.994675 0.650202 15.814568 -23.046723 -2.881378 9.498254 -2.514496 -4.992075 -7.366213 -21.680572 51.684406 90.697546 -4.471838 22.046164 -2.977730 1.537744 2.497971 1.426100 -6.309936 15.056161 -53.012603 -62.597654 -3.951703 -32.909944 -36.007127 -6.208621 -5.270362 -2.152835 7.071613 69.472399 -73.536098 -47.652445 128.354881 68.199426 152.452907 -0.120698 -23.435854 -2.498584 0.058045 1.290545 0.017362 -156.817345 -80.594931 -144.597771 -156.718249 63.946814 -128.270706 2.220877 -10.836968 -8.967821 -0.511535 -1.244836 -0.175468
-3.894320 45.140069 -18.695386 11.938221 -11.687135 -7.418377 10.590816 9.425771 3.179152 6.075303 5.404551 1.236293 7.620770 6.732703 1.636647 6.075307 5.404552 1.236294 12.972774 3.161420 0.666299 15.739420 -22.847821 -2.840080 9.549373 -2.569761 -4.916738 -7.124551 -21.723390 51.734104 90.400852 -4.370535 22.123191 -3.069939 1.559829 2.470821 1.465361 -6.134394 14.962440 -52.403419 -62.665063 -4.781522 -33.236784 -35.568658 -6.473585 -5.601931 -2.191687 7.426601 69.120298 -73.506318 -47.291658 128.485211 68.171548 152.501483 -0.090446 -23.398480 -2.496365 0.038739 1.268689 0.007107 -156.876972 -80.785762 -144.504240 -156.630028 63.984298 -128.206803 2.200238 -10.820051 -8.997902 -0.492425 -1.236579 -0.166947
-3.904907 45.136130 -18.706314 11.920971 -11.812002 -7.329482 10.596727 9.392435 3.179020 6.078217 5.389155 1.241613 7.624393 6.713364 1.643075 6.078221 5.389156 1.241615 12.940628 3.325384 0.687912 15.663742 -22.652812 -2.792579 9.600516 -2.624554 -4.843019 -6.890091 -21.769659 51.798938 90.103314 -4.262367 22.194029 -3.172492 1.587224 2.445943 1.477478 -5.952093 14.857216 -51.784282 -62.730882 -5.591305 -33.535087 -35.123024 -6.754300 -5.941771 -2.232050 7.781180 68.776364 -73.478195 -46.935923 128.620924 68.147077 152.553713 -0.058241 -23.358623 -2.492252 0.018217 1.246876 -0.003445 -156.946246 -80.976624 -144.396985 -156.533314 64.024633 -128.132217 2.177491 -10.806730 -9.031738 -0.470771 -1.223473 -0.156364
-3.916487 45.132704 -18.716632 11.901441 -11.938071 -7.238852 10.606603 9.362113 3.180080 6.081995 5.375514 1.246074 7.629094 6.696229 1.648470 6.081998 5.375515 1.246075 12.906460 3.484280 0.713484 15.585464 -22.464354 -2.740300 9.645539 -2.684711 -4.772558 -6.649523 -21.815011 51.875668 89.804658 -4.151067 22.249667 -3.287180 1.624813 2.419648 1.458196 -5.756028 14.739135 -51.168829 -62.779219 -6.353893 -33.815106 -34.689420 -7.036500 -6.264407 -2.276267 8.113091 68.434707 -73.449615 -46.578222 128.763992 68.124443 152.612381 -0.027426 -23.316508 -2.488477 -0.001889 1.224311 -0.012652 -157.032193 -81.172209 -144.265599 -156.424044 64.067926 -128.042431 2.148391 -10.800213 -9.069816 -0.443924 -1.203744 -0.142896
-3.929008 45.129767 -18.726484 11.885932 -12.064494 -7.147026 10.613709 9.335875 3.180228 6.086415 5.363824 1.249845 7.634603 6.681540 1.653047 6.086418 5.363825 1.249846 12.869782 3.638433 0.740542 15.504593 -22.281959 -2.686104 9.682919 -2.750770 -4.703528 -6.394522 -21.858917 51.960079 89.507517 -4.034601 22.288654 -3.413594 1.671721 2.387947 1.416210 -5.546110 14.612747 -50.566536 -62.784764 -7.069367 -34.092254 -34.287004 -7.295384 -6.544747 -2.319760 8.410181 68.092769 -73.419017 -46.221157 128.905686 68.100063 152.670132 -0.002603 -23.274780 -2.485526 -0.019837 1.201451 -0.019907 -157.154866 -81.373101 -144.096075 -156.299169 64.117764 -127.935537 2.112580 -10.799403 -9.108442 -0.411945 -1.175723 -0.128413
-3.941966 45.127258 -18.735882 11.878081 -12.192363 -7.052410 10.612081 9.313892 3.177365 6.090692 5.353720 1.253426 7.639940 6.668837 1.657410 6.090695 5.353721 1.253427 12.832472 3.789758 0.764699 15.424582 -22.103214 -2.635775 9.720183 -2.813560 -4.633200 -6.130302 -21.911270 52.049181 89.211741 -3.907961 22.315716 -3.549685 1.725922 2.351000 1.370035 -5.327867 14.485199 -49.983574 -62.734230 -7.755123 -34.374202 -33.922488 -7.517492 -6.770847 -2.352527 8.670840 67.748422 -73.382790 -45.865097 129.045041 68.071499 152.724972 0.016219 -23.236867 -2.479677 -0.036638 1.179172 -0.027243 -157.320148 -81.582193 -143.887412 -156.161782 64.176429 -127.817506 2.070116 -10.800814 -9.145179 -0.376070 -1.141916 -0.114296
-3.954946 45.124996 -18.745308 11.873239 -12.321005 -6.952383 10.604979 9.295025 3.170017 6.094707 5.344577 1.257103 7.644956 6.657334 1.661907 6.094709 5.344578 1.257104 12.794892 3.939672 0.782238 15.346744 -21.926334 -2.593829 9.764351 -2.870747 -4.559043 -5.873468 -21.974806 52.140365 88.920167 -3.766524 22.341624 -3.690724 1.786251 2.309877 1.333955 -5.116053 14.360377 -49.420606 -62.636258 -8.434113 -34.652977 -33.578559 -7.712552 -6.946859 -2.369320 8.906706 67.412535 -73.340475 -45.519522 129.189990 68.040810 152.784668 0.034386 -23.200258 -2.470803 -0.053132 1.156682 -0.035580 -157.519343 -81.798784 -143.647150 -156.022819 64.241513 -127.703297 2.026575 -10.802167 -9.178214 -0.342576 -1.107270 -0.102055
-3.968331 45.122817 -18.755463 11.866627 -12.447441 -6.849168 10.598727 9.275146 3.159333 6.099810 5.335922 1.260917 7.651339 6.646434 1.666599 6.099812 5.335923 1.260917 12.755864 4.088541 0.793037 15.269475 -21.750884 -2.559992 9.815655 -2.930324 -4.480196 -5.636639 -22.034639 52.231799 88.641531 -3.605447 22.366961 -3.828723 1.848947 2.269291 1.305928 -4.925323 14.243568 -48.875844 -62.509710 -9.123695 -34.915325 -33.225060 -7.889483 -7.081096 -2.376479 9.133549 67.098686 -73.296199 -45.196078 129.336868 68.010273 152.847263 0.054021 -23.160272 -2.460688 -0.070278 1.132936 -0.044363 -157.726927 -82.017179 -143.399490 -155.885513 64.309364 -127.597816 1.988528 -10.800223 -9.207785 -0.315792 -1.075421 -0.092314
-3.982211 45.120834 -18.765935 11.857073 -12.574931 -6.745487 10.597635 9.253725 3.149308 6.105930 5.327854 1.265056 7.659003 6.636257 1.671723 6.105931 5.327856 1.265056 12.716480 4.237647 0.797949 15.193762 -21.575369 -2.533429 9.873350 -2.995187 -4.401889 -5.423669 -22.077435 52.327379 88.382545 -3.419271 22.387448 -3.954123 1.906410 2.237607 1.273456 -4.756515 14.132563 -48.345576 -62.374063 -9.820964 -35.150860 -32.840402 -8.052607 -7.180978 -2.379202 9.364515 66.797565 -73.251643 -44.882133 129.482515 67.980057 152.909560 0.073204 -23.114822 -2.449119 -0.088221 1.106677 -0.052897 -157.896848 -82.236601 -143.189476 -155.748844 64.374226 -127.499935 1.956263 -10.790390 -9.234378 -0.294466 -1.051589 -0.085107
-3.995878 45.119128 -18.776398 11.845583 -12.706292 -6.639535 10.600624 9.233777 3.140153 6.111851 5.320126 1.269436 7.666424 6.626502 1.677151 6.111853 5.320127 1.269436 12.679728 4.387682 0.797644 15.123241 -21.398984 -2.514134 9.935761 -3.063609 -4.326826 -5.221960 -22.102679 52.426242 88.139344 -3.208746 22.400626 -4.061331 1.956365 2.218367 1.224945 -4.601504 14.019715 -47.817161 -62.249031 -10.513514 -35.355020 -32.416116 -8.215936 -7.259079 -2.377204 9.610899 66.499628 -73.203614 -44.567345 129.629304 67.949647 152.972384 0.090975 -23.067815 -2.434987 -0.106488 1.079757 -0.061135 -158.033624 -82.459038 -143.013641 -155.617692 64.433602 -127.413601 1.929154 -10.772205 -9.257000 -0.278168 -1.038298 -0.080882
-4.009555 45.117733 -18.787160 11.832078 -12.838996 -6.533523 10.604791 9.215177 3.132827 6.118343 5.312425 1.274134 7.674563 6.616774 1.682986 6.118344 5.312427 1.274135 12.646888 4.536588 0.793202 15.059562 -21.224165 -2.501253 9.998168 -3.133032 -4.254112 -5.012865 -22.119036 52.518645 87.902735 -2.986892 22.401436 -4.154571 2.000509 2.204923 1.156603 -4.451748 13.902162 -47.276697 -62.152146 -11.200886 -35.526726 -31.956859 -8.394402 -7.332047 -2.367042 9.876114 66.200468 -73.153887 -44.248979 129.775811 67.920371 153.034909 0.108643 -23.023864 -2.420845 -0.123446 1.055788 -0.068665 -158.159300 -82.681010 -142.849145 -155.488173 64.489969 -127.329392 1.904267 -10.748858 -9.278996 -0.263889 -1.031405 -0.077405
